<?xml version="1.0" encoding="utf-8"?>
<!-- Generator: Adobe Illustrator 21.1.0, SVG Export Plug-In . SVG Version: 6.00 Build 0)  -->
<svg version="1.1" id="Layer_1" xmlns="http://www.w3.org/2000/svg" xmlns:xlink="http://www.w3.org/1999/xlink" x="0px" y="0px"
	 viewBox="0 0 222 222" style="enable-background:new 0 0 222 222;" xml:space="preserve">
<style type="text/css">
	.st0{fill:#FEFEFE;}
</style>
<g>
	<g>
		<path class="st0" d="M205.3,90.3h-18.2c-1.8-6.5-4.4-12.8-7.8-18.7l11.1-11.1c2.4-2.4,3.7-5.6,3.7-9c0-3.4-1.3-6.6-3.7-9l-12-12
			c-2.4-2.4-5.6-3.7-9-3.7s-6.6,1.3-9,3.7l-11.1,11.1c-5.9-3.4-12.2-6-18.7-7.8V15.7C130.7,8.7,125,3,118,3h-17
			c-7,0-12.7,5.7-12.7,12.7v18.2c-6.5,1.8-12.8,4.4-18.7,7.8L58.6,30.6c-5-5-13-5-18,0l-12,12c-5,5-5,13,0,18l11.1,11.1
			c-3.4,5.9-6,12.2-7.8,18.7H13.7C6.7,90.3,1,96,1,103v17c0,7,5.7,12.7,12.7,12.7h18.2c1.8,6.5,4.4,12.8,7.8,18.7l-11.1,11.1
			c-5,5-5,13,0,18l12,12c5,5,13,5,18,0l11.1-11.1c5.9,3.4,12.2,6,18.7,7.8v18.2c0,7,5.7,12.7,12.7,12.7h17c7,0,12.7-5.7,12.7-12.7
			v-18.2c6.5-1.8,12.8-4.4,18.7-7.8l11.1,11.1c2.4,2.4,5.6,3.7,9,3.7c3.4,0,6.6-1.3,9-3.7l12-12c2.4-2.4,3.7-5.6,3.7-9
			c0-3.4-1.3-6.6-3.7-9l-11.1-11.1c3.4-5.9,6-12.2,7.8-18.7h18.2c7,0,12.7-5.7,12.7-12.7v-17C218,96,212.3,90.3,205.3,90.3z
			 M209.5,120c0,2.3-1.9,4.2-4.2,4.2h-21.5c-2,0-3.7,1.4-4.1,3.3c-1.8,7.9-4.9,15.4-9.3,22.3c-1.1,1.7-0.8,3.9,0.6,5.3l13.4,13.4
			c0.8,0.8,1.2,1.9,1.2,3c0,1.1-0.4,2.2-1.2,3l-12,12c-0.8,0.8-1.9,1.2-3,1.2c-1.1,0-2.2-0.4-3-1.2L153,173
			c-1.4-1.4-3.6-1.6-5.3-0.6c-6.9,4.3-14.4,7.5-22.3,9.3c-1.9,0.4-3.3,2.2-3.3,4.1v21.5c0,2.3-1.9,4.2-4.2,4.2h-17
			c-2.3,0-4.2-1.9-4.2-4.2v-21.5c0-2-1.4-3.7-3.3-4.1c-7.9-1.8-15.4-4.9-22.3-9.3c-0.7-0.4-1.5-0.7-2.3-0.7c-1.1,0-2.2,0.4-3,1.2
			l-13.4,13.4c-1.7,1.7-4.3,1.7-6,0l-12-12c-1.7-1.7-1.7-4.3,0-6L48,155c1.4-1.4,1.6-3.6,0.6-5.3c-4.3-6.9-7.5-14.4-9.3-22.3
			c-0.4-1.9-2.2-3.3-4.1-3.3H13.7c-2.3,0-4.2-1.9-4.2-4.2v-17c0-2.3,1.9-4.2,4.2-4.2h21.5c2,0,3.7-1.4,4.1-3.3
			c1.8-7.9,4.9-15.4,9.3-22.3c1.1-1.7,0.8-3.9-0.6-5.3L34.6,54.6c-1.7-1.7-1.7-4.3,0-6l12-12c1.7-1.7,4.3-1.7,6,0L66,50
			c1.4,1.4,3.6,1.6,5.3,0.6c6.9-4.3,14.4-7.5,22.3-9.3c1.9-0.4,3.3-2.2,3.3-4.1V15.7c0-2.3,1.9-4.2,4.2-4.2h17
			c2.3,0,4.2,1.9,4.2,4.2v21.5c0,2,1.4,3.7,3.3,4.1c7.9,1.8,15.4,4.9,22.3,9.3c1.7,1.1,3.9,0.8,5.3-0.6l13.4-13.4
			c0.8-0.8,1.9-1.2,3-1.2c1.1,0,2.2,0.4,3,1.2l12,12c0.8,0.8,1.2,1.9,1.2,3c0,1.1-0.4,2.2-1.2,3L171,68c-1.4,1.4-1.6,3.6-0.6,5.3
			c4.3,6.9,7.5,14.4,9.3,22.3c0.4,1.9,2.2,3.3,4.1,3.3h21.5c2.3,0,4.2,1.9,4.2,4.2V120z"/>
	</g>
</g>
<g>
	<g>
		<path class="st0" d="M109.5,64.9c-25.7,0-46.6,20.9-46.6,46.6s20.9,46.6,46.6,46.6s46.6-20.9,46.6-46.6S135.2,64.9,109.5,64.9z
			 M109.5,149.6c-21,0-38.1-17.1-38.1-38.1s17.1-38.1,38.1-38.1s38.1,17.1,38.1,38.1S130.5,149.6,109.5,149.6z"/>
	</g>
</g>
<g>
	<g>
		<path class="st0" d="M109.5,47.9c-2.3,0-4.2,1.9-4.2,4.2s1.9,4.2,4.2,4.2c30.4,0,55.1,24.7,55.1,55.1c0,9.2-2.3,18.4-6.7,26.4
			c-1.1,2.1-0.4,4.6,1.7,5.8c0.6,0.4,1.3,0.5,2,0.5c1.5,0,3-0.8,3.7-2.2c5.1-9.3,7.8-19.8,7.8-30.5
			C173.1,76.4,144.6,47.9,109.5,47.9z"/>
	</g>
</g>
<g>
	<g>
		<path class="st0" d="M109.5,166.6c-30.4,0-55.1-24.7-55.1-55.1c0-9.2,2.3-18.4,6.7-26.4c1.1-2.1,0.4-4.6-1.7-5.8
			c-2.1-1.1-4.6-0.4-5.8,1.7c-5.1,9.3-7.8,19.8-7.8,30.5c0,35.1,28.5,63.6,63.6,63.6c2.3,0,4.2-1.9,4.2-4.2S111.8,166.6,109.5,166.6
			z"/>
	</g>
</g>
</svg>
